<?xml version="1.0" encoding="UTF-8" standalone="no"?>
<svg
   xmlns:dc="http://purl.org/dc/elements/1.1/"
   xmlns:cc="http://creativecommons.org/ns#"
   xmlns:rdf="http://www.w3.org/1999/02/22-rdf-syntax-ns#"
   xmlns:svg="http://www.w3.org/2000/svg"
   xmlns="http://www.w3.org/2000/svg"
   xmlns:sodipodi="http://sodipodi.sourceforge.net/DTD/sodipodi-0.dtd"
   xmlns:inkscape="http://www.inkscape.org/namespaces/inkscape"
   aria-hidden="true"
   focusable="false"
   data-prefix="fas"
   data-icon="hands-helping"
   class="svg-inline--fa fa-hands-helping fa-w-20"
   role="img"
   viewBox="0 0 16 15.999998"
   version="1.1"
   id="svg60"
   sodipodi:docname="hands-helping-solid.rdimensionne.svg"
   width="16"
   height="15.999998"
   inkscape:version="0.92.5 (2060ec1f9f, 2020-04-08)">
  <metadata
     id="metadata66">
    <rdf:RDF>
      <cc:Work
         rdf:about="">
        <dc:format>image/svg+xml</dc:format>
        <dc:type
           rdf:resource="http://purl.org/dc/dcmitype/StillImage" />
        <dc:title />
      </cc:Work>
    </rdf:RDF>
  </metadata>
  <defs
     id="defs64" />
  <sodipodi:namedview
     pagecolor="#ffffff"
     bordercolor="#666666"
     borderopacity="1"
     objecttolerance="10"
     gridtolerance="10"
     guidetolerance="10"
     inkscape:pageopacity="0"
     inkscape:pageshadow="2"
     inkscape:window-width="1848"
     inkscape:window-height="1016"
     id="namedview62"
     showgrid="false"
     inkscape:zoom="1.6367188"
     inkscape:cx="320.02281"
     inkscape:cy="255.97837"
     inkscape:window-x="1752"
     inkscape:window-y="27"
     inkscape:window-maximized="1"
     inkscape:current-layer="svg60" />
  <path
     d="M 12.200548,5.9998292 H 8.4005548 v 1.75015 c 0,1.24073 -0.8074986,2.2501898 -1.7999967,2.2501898 -0.9924982,0 -1.7999967,-1.0094598 -1.7999967,-2.2501898 v -3.80032 l -1.6224971,1.21885 c -0.4824991,0.3594 -0.7774985,1.01258 -0.7774985,1.71264 v 1.47825 l -1.99999634,1.44388 C 0.01807016,10.078299 -0.11442959,10.690849 0.10807,11.169019 l 1.9999963,4.33161 c 0.2199996,0.47817 0.7099987,0.64068 1.092498,0.36566 l 2.5849953,-1.86578 h 3.4149937 c 0.8824987,0 1.5999967,-0.89696 1.5999967,-2.00017 h 0.4 c 0.442499,0 0.799998,-0.44692 0.799998,-1.00009 V 9.0000792 h 0.2 c 0.332499,0 0.599999,-0.3344 0.599999,-0.75006 v -1.50013 c 0,-0.41566 -0.2675,-0.75006 -0.599999,-0.75006 z m 3.692493,-1.16885 -1.999996,-4.33162002 c -0.22,-0.47816 -0.709999,-0.64067 -1.092498,-0.36565 L 10.215552,1.9994892 H 7.6605561 c -0.2999994,0 -0.5924989,0.10626 -0.8474984,0.30315 l -0.8374985,0.65318 c -0.2349996,0.18127 -0.3749993,0.50317 -0.3749993,0.84695 v 3.94721 c 0,0.69068 0.4474992,1.2501 0.9999982,1.2501 0.5524989,0 0.9999981,-0.55942 0.9999981,-1.2501 v -2.75024 h 4.5999918 c 0.772498,0 1.399997,0.78445 1.399997,1.75015 v 0.8907 l 1.999997,-1.44387 c 0.382499,-0.27815 0.512499,-0.88757 0.292499,-1.36574 z"
     id="path58"
     inkscape:connector-curvature="0"
     style="fill:#ffffff;stroke-width:0.027952" />
</svg>
