<?xml version="1.0" encoding="UTF-8" standalone="no"?>
<svg
   xmlns:dc="http://purl.org/dc/elements/1.1/"
   xmlns:cc="http://creativecommons.org/ns#"
   xmlns:rdf="http://www.w3.org/1999/02/22-rdf-syntax-ns#"
   xmlns:svg="http://www.w3.org/2000/svg"
   xmlns="http://www.w3.org/2000/svg"
   xmlns:sodipodi="http://sodipodi.sourceforge.net/DTD/sodipodi-0.dtd"
   xmlns:inkscape="http://www.inkscape.org/namespaces/inkscape"
   aria-hidden="true"
   focusable="false"
   data-prefix="far"
   data-icon="heart"
   class="svg-inline--fa fa-heart fa-w-16"
   role="img"
   viewBox="0 0 512 512"
   version="1.1"
   id="svg865"
   sodipodi:docname="heart-regular.svg"
   inkscape:version="0.92.5 (2060ec1f9f, 2020-04-08)">
  <metadata
     id="metadata871">
    <rdf:RDF>
      <cc:Work
         rdf:about="">
        <dc:format>image/svg+xml</dc:format>
        <dc:type
           rdf:resource="http://purl.org/dc/dcmitype/StillImage" />
        <dc:title></dc:title>
      </cc:Work>
    </rdf:RDF>
  </metadata>
  <defs
     id="defs869" />
  <sodipodi:namedview
     pagecolor="#ffffff"
     bordercolor="#666666"
     borderopacity="1"
     objecttolerance="10"
     gridtolerance="10"
     guidetolerance="10"
     inkscape:pageopacity="0"
     inkscape:pageshadow="2"
     inkscape:window-width="1680"
     inkscape:window-height="1050"
     id="namedview867"
     showgrid="false"
     inkscape:zoom="6.5234375"
     inkscape:cx="251.47784"
     inkscape:cy="286.65868"
     inkscape:window-x="0"
     inkscape:window-y="0"
     inkscape:window-maximized="1"
     inkscape:current-layer="svg865" />
  <path
     d="m 257.22819,211.63373 c -2.82226,-2.71132 -7.18261,-2.30406 -9.8828,0.83682 -2.70019,-3.14088 -7.06054,-3.55372 -9.88281,-0.83682 -3.67187,3.5314 -3.13476,9.28876 -0.51757,12.34039 l 8.56444,9.96938 c 0.48828,0.56905 1.14258,0.88704 1.83594,0.88704 0.69824,0 1.34765,-0.31241 1.83593,-0.88146 l 8.56445,-9.96938 c 2.6123,-3.05163 3.15918,-8.80899 -0.51758,-12.34597 z m -1.15234,10.46032 -8.56445,9.96939 c -0.11718,0.13389 -0.21484,0.13389 -0.33203,0 l -8.56444,-9.96939 c -1.78223,-2.07533 -2.14356,-6.00283 0.35644,-8.40731 1.89941,-1.82428 4.8291,-1.55092 6.66504,0.58578 l 1.70898,1.99164 1.70898,-1.99164 c 1.8457,-2.14785 4.77539,-2.41006 6.66504,-0.59136 2.49511,2.40448 2.12402,6.3543 0.35644,8.41289 z"
     id="path863"
     inkscape:connector-curvature="0"
     style="fill:currentColor;stroke-width:0.05219234" />
</svg>
