<?xml version="1.0" encoding="UTF-8" standalone="no"?>
<svg
   xmlns:dc="http://purl.org/dc/elements/1.1/"
   xmlns:cc="http://creativecommons.org/ns#"
   xmlns:rdf="http://www.w3.org/1999/02/22-rdf-syntax-ns#"
   xmlns:svg="http://www.w3.org/2000/svg"
   xmlns="http://www.w3.org/2000/svg"
   xmlns:sodipodi="http://sodipodi.sourceforge.net/DTD/sodipodi-0.dtd"
   xmlns:inkscape="http://www.inkscape.org/namespaces/inkscape"
   aria-hidden="true"
   focusable="false"
   data-prefix="fas"
   data-icon="utensils"
   class="svg-inline--fa fa-utensils fa-w-13"
   role="img"
   viewBox="0 0 16 15.999996"
   version="1.1"
   id="svg60"
   sodipodi:docname="utensils-solid.redimensionne.svg"
   width="16"
   height="15.999996"
   inkscape:version="0.92.5 (2060ec1f9f, 2020-04-08)">
  <metadata
     id="metadata66">
    <rdf:RDF>
      <cc:Work
         rdf:about="">
        <dc:format>image/svg+xml</dc:format>
        <dc:type
           rdf:resource="http://purl.org/dc/dcmitype/StillImage" />
        <dc:title />
      </cc:Work>
    </rdf:RDF>
  </metadata>
  <defs
     id="defs64" />
  <sodipodi:namedview
     pagecolor="#ffffff"
     bordercolor="#666666"
     borderopacity="1"
     objecttolerance="10"
     gridtolerance="10"
     guidetolerance="10"
     inkscape:pageopacity="0"
     inkscape:pageshadow="2"
     inkscape:window-width="1848"
     inkscape:window-height="1016"
     id="namedview62"
     showgrid="false"
     inkscape:zoom="1.6308594"
     inkscape:cx="97.628744"
     inkscape:cy="256"
     inkscape:window-x="1752"
     inkscape:window-y="27"
     inkscape:window-maximized="1"
     inkscape:current-layer="svg60" />
  <path
     d="m 7.9961538,0.47503601 c 0.030769,0.14688 0.6192308,2.95311999 0.6192308,4.02498999 0,1.63437 -1.0692308,2.79999 -2.65,3.26874 l 0.4961539,7.44061 c 0.026923,0.42812 -0.3923077,0.79062 -0.923077,0.79062 H 3.0769231 c -0.5269231,0 -0.95,-0.35937 -0.9230769,-0.79062 L 2.65,7.768766 C 1.0653846,7.300016 0,6.131276 0,4.500026 0,3.425036 0.58846154,0.62191601 0.61923077,0.47503601 c 0.12307692,-0.63437 1.74230773,-0.64374 1.84230773,0.0344 V 4.921926 c 0.05,0.10625 0.5807692,0.1 0.6153846,0 0.053846,-0.79063 0.3038461,-4.34998999 0.3076923,-4.43123999 0.1269231,-0.65 1.7192308,-0.65 1.8423077,0 0.00769,0.0844 0.2538461,3.64060999 0.3076923,4.43123999 0.034615,0.1 0.5692308,0.10625 0.6153846,0 V 0.50943601 c 0.1,-0.675 1.7230769,-0.66875 1.8461538,-0.0344 z m 4.5846152,8.92809999 -0.576923,5.78436 c -0.04615,0.4375 0.380769,0.8125 0.919231,0.8125 h 2.153846 c 0.511539,0 0.923077,-0.33437 0.923077,-0.75 V 0.75003601 C 16,0.33753601 15.588462,3.60065e-5 15.076923,3.60065e-5 11.903846,3.60065e-5 6.5615385,5.578146 12.580769,9.403136 Z"
     id="path58"
     inkscape:connector-curvature="0"
     style="fill:#ffffff;stroke-width:0.03466871" />
</svg>
